<?xml version="1.0" standalone="no"?>
<!DOCTYPE svg PUBLIC "-//W3C//DTD SVG 20010904//EN"
 "http://www.w3.org/TR/2001/REC-SVG-20010904/DTD/svg10.dtd">
<svg version="1.0" xmlns="http://www.w3.org/2000/svg"
 width="500.000000pt" height="500.000000pt" viewBox="0 0 500.000000 500.000000"
 preserveAspectRatio="xMidYMid meet">

<g transform="translate(0.000000,500.000000) scale(0.100000,-0.100000)"
fill="#000000" stroke="none">
<path d="M1780 3834 c0 -5 35 -45 79 -88 l78 -78 -17 -70 c-10 -38 -20 -71
-22 -73 -2 -1 -35 -12 -74 -23 l-72 -20 -78 79 c-43 43 -82 79 -86 79 -13 0
-9 -64 8 -113 19 -57 95 -131 150 -146 22 -6 57 -11 79 -11 32 0 46 -7 76 -36
l38 -37 -29 -51 c-26 -47 -70 -162 -70 -185 0 -5 20 -21 45 -35 l45 -27 0 -79
0 -79 -42 -23 c-39 -22 -43 -27 -40 -58 1 -19 22 -75 46 -126 l44 -92 -37 -36
c-32 -31 -43 -36 -86 -36 -54 0 -138 -34 -167 -66 -9 -10 -28 -39 -42 -64
l-25 -45 -258 -16 -258 -16 493 -2 c378 -1 492 2 492 11 0 7 16 29 36 49 l37
38 66 -33 c51 -26 159 -66 177 -66 1 0 14 20 28 45 l27 45 79 0 80 0 26 -42
c15 -24 28 -44 29 -46 6 -7 146 43 191 69 l50 28 42 -42 c24 -24 39 -46 36
-50 -4 -4 217 -6 492 -6 l499 2 -264 16 -263 16 -20 40 c-11 22 -30 51 -42 64
-33 37 -114 71 -171 71 -43 0 -54 4 -87 37 l-37 36 34 61 c28 52 65 151 65
178 0 4 -18 19 -40 33 l-40 25 0 83 0 83 40 23 c22 12 40 28 40 35 0 23 -39
127 -68 181 l-29 54 36 35 c31 30 44 36 81 36 93 1 174 51 215 133 23 48 35
137 18 137 -4 0 -44 -35 -88 -79 l-80 -78 -71 19 -71 20 -20 74 -20 73 79 78
c43 43 78 81 78 85 0 5 -15 8 -32 8 -128 0 -249 -128 -237 -248 3 -25 -4 -39
-35 -71 l-38 -39 -62 33 c-52 28 -152 65 -177 65 -4 0 -18 -18 -30 -40 l-23
-40 -87 0 c-75 0 -89 3 -93 18 -4 9 -15 28 -25 41 l-18 23 -59 -17 c-32 -9
-87 -32 -120 -50 l-62 -33 -36 37 c-29 30 -36 44 -36 78 0 85 -46 168 -117
210 -43 25 -153 44 -153 27z m601 -314 l23 -40 98 0 98 0 20 41 c17 33 25 39
43 34 12 -4 31 -9 42 -12 11 -3 49 -19 84 -36 61 -28 63 -30 57 -61 -6 -30 -5
-29 54 29 32 32 63 56 67 52 4 -4 -30 -45 -76 -90 l-83 -82 6 42 c3 23 8 48
11 55 4 10 -14 24 -62 45 -103 47 -107 47 -132 2 l-22 -39 -108 0 -107 0 -22
39 c-26 45 -31 45 -142 -5 -43 -19 -59 -31 -55 -41 3 -8 8 -33 11 -56 l6 -42
-80 79 c-45 44 -78 84 -75 89 3 5 32 -17 65 -50 58 -56 60 -57 53 -27 -6 30
-3 33 38 53 44 21 145 60 159 61 4 0 17 -18 29 -40z m234 -126 c198 -51 339
-208 368 -408 33 -228 -112 -456 -336 -528 -83 -27 -210 -27 -294 0 -224 71
-373 309 -335 537 47 282 327 470 597 399z m-567 -146 c15 -21 15 -21 -25 -15
-23 4 -48 9 -55 12 -10 4 -24 -14 -45 -62 -47 -103 -47 -107 -2 -132 l39 -22
0 -108 0 -107 -40 -23 -39 -22 23 -64 c13 -35 30 -75 39 -89 16 -24 18 -24 61
-11 25 8 48 10 50 6 7 -11 -148 -163 -157 -154 -4 4 18 34 50 66 57 59 57 59
27 54 -31 -6 -32 -5 -66 71 -55 121 -55 127 -8 154 l40 23 0 97 c0 96 0 98
-27 112 -55 30 -54 29 -40 77 8 24 27 70 42 102 28 56 31 58 59 53 30 -6 29
-4 -27 52 -32 32 -55 61 -51 65 7 7 128 -100 152 -135z m1062 135 c0 -4 -26
-34 -57 -65 -55 -56 -57 -58 -28 -52 28 5 33 2 53 -35 20 -36 62 -144 62 -161
0 -3 -18 -16 -40 -29 l-40 -22 0 -99 c0 -85 2 -99 18 -104 9 -4 27 -14 40 -24
21 -17 22 -19 9 -62 -8 -25 -26 -71 -42 -102 -26 -52 -30 -57 -54 -52 -23 6
-19 -1 28 -49 33 -34 51 -60 46 -67 -5 -8 -33 14 -86 66 -43 43 -76 81 -73 85
2 4 26 1 53 -6 l49 -13 27 60 c49 109 49 115 4 141 l-39 22 0 107 0 108 41 20
c46 24 46 23 -4 133 -19 43 -35 66 -43 63 -29 -11 -84 -18 -84 -10 0 11 142
154 152 154 5 0 8 -3 8 -7z m-928 -967 c-7 -25 -7 -38 1 -45 18 -14 134 -61
152 -61 9 0 25 16 36 35 l21 35 108 0 108 0 22 -35 c12 -19 28 -35 37 -35 8 0
48 14 90 31 66 28 74 34 68 53 -13 45 -17 86 -9 86 14 0 154 -143 154 -157 0
-22 -13 -14 -72 44 -56 56 -58 57 -52 27 6 -29 4 -31 -73 -66 -117 -54 -127
-54 -155 -1 l-23 44 -95 -3 -94 -3 -23 -40 c-27 -49 -43 -49 -156 3 -77 35
-78 36 -71 66 6 30 4 29 -53 -27 -33 -32 -62 -54 -66 -50 -4 4 27 42 70 85 80
81 94 83 75 14z m-317 -26 c10 -11 28 -20 40 -20 26 0 45 -18 45 -42 0 -16 -9
-18 -68 -18 -38 0 -103 -3 -145 -6 -56 -5 -77 -4 -77 5 0 6 11 16 24 23 14 6
30 23 36 38 10 25 15 27 49 23 23 -3 41 -1 45 6 11 17 31 13 51 -9z m1367 6
c28 0 39 -5 47 -23 5 -12 22 -29 36 -39 14 -9 25 -20 25 -25 0 -10 -271 0
-281 10 -15 13 11 51 34 51 13 0 32 9 43 21 13 14 24 18 39 13 11 -4 37 -7 57
-8z"/>
<path d="M2212 3137 c-92 -93 -103 -107 -79 -107 17 0 199 184 191 193 -13 12
-18 8 -112 -86z"/>
<path d="M2680 3222 c0 -14 189 -196 197 -189 7 8 -175 197 -189 197 -5 0 -8
-3 -8 -8z"/>
<path d="M2240 3105 c-52 -52 -92 -97 -89 -99 3 -3 50 40 104 94 55 55 95 100
90 100 -6 0 -53 -43 -105 -95z"/>
<path d="M2745 3100 c54 -54 101 -97 104 -94 7 6 -181 194 -194 194 -5 0 35
-45 90 -100z"/>
<path d="M2260 3085 l-95 -95 65 -65 c35 -36 67 -65 71 -65 4 0 9 14 13 32 8
42 102 136 144 144 18 4 32 9 32 13 0 8 -123 131 -130 131 -3 0 -48 -43 -100
-95z m100 -50 c15 -18 7 -43 -16 -52 -24 -9 -46 24 -33 48 12 23 32 24 49 4z"/>
<path d="M2570 3115 c-55 -56 -61 -65 -44 -71 78 -25 143 -90 169 -168 5 -17
15 -11 73 47 l67 67 -95 95 c-52 52 -97 95 -100 95 -3 0 -34 -29 -70 -65z
m124 -87 c8 -14 7 -21 -6 -34 -30 -30 -75 9 -48 42 16 18 39 15 54 -8z"/>
<path d="M2377 2972 c-16 -17 -14 -21 28 -62 44 -43 45 -43 65 -25 l21 19 -43
43 c-23 24 -45 43 -49 43 -3 0 -13 -8 -22 -18z"/>
<path d="M2483 2879 c-65 -62 -120 -115 -122 -116 -3 -2 6 -14 19 -28 l24 -26
79 78 c43 43 96 99 118 124 38 46 38 47 19 64 -19 17 -23 15 -137 -96z"/>
<path d="M2532 2817 l-22 -23 44 -43 43 -43 25 25 25 25 -41 41 c-23 23 -44
41 -47 41 -3 0 -15 -10 -27 -23z"/>
<path d="M2267 2743 c-29 -8 -50 -70 -36 -111 23 -70 135 -76 159 -9 16 47 12
66 -19 98 -29 28 -57 34 -104 22z m91 -41 c29 -38 2 -102 -45 -102 -30 0 -63
33 -63 64 0 53 75 80 108 38z"/>
<path d="M2637 2730 c-32 -25 -41 -62 -26 -105 23 -64 123 -66 155 -3 13 26
14 38 4 73 -10 36 -17 44 -42 49 -48 10 -64 7 -91 -14z m87 -21 c46 -36 25
-109 -32 -109 -61 0 -84 72 -36 109 15 12 30 21 34 21 4 0 19 -9 34 -21z"/>
<path d="M1144 1919 c-41 -12 -91 -69 -100 -114 -9 -50 3 -119 27 -149 30 -39
71 -56 131 -56 112 0 170 82 147 207 -18 94 -104 141 -205 112z m87 -81 c16
-30 16 -133 -1 -152 -19 -23 -47 -19 -66 9 -19 29 -16 124 5 149 19 23 48 20
62 -6z"/>
<path d="M590 1880 c0 -20 5 -30 15 -30 12 0 15 -17 15 -95 0 -78 -3 -95 -15
-95 -10 0 -15 -10 -15 -30 l0 -30 60 0 60 0 0 30 c0 17 -4 30 -10 30 -6 0 -10
30 -9 73 1 65 2 68 11 37 5 -19 18 -65 29 -102 l20 -68 44 0 44 0 17 58 c9 31
22 77 29 102 l14 45 0 -72 c1 -43 -3 -73 -9 -73 -5 0 -10 -13 -10 -30 l0 -30
70 0 70 0 0 30 c0 20 -5 30 -15 30 -12 0 -15 17 -15 95 0 78 3 95 15 95 10 0
15 10 15 30 l0 30 -85 0 -84 0 -11 -40 c-34 -131 -32 -127 -41 -100 -4 14 -15
51 -24 83 l-16 57 -84 0 -85 0 0 -30z"/>
<path d="M1380 1881 c0 -17 5 -31 10 -31 6 0 10 -38 10 -95 0 -57 -4 -95 -10
-95 -5 0 -10 -14 -10 -31 l0 -31 118 3 c127 4 146 11 163 58 12 29 -5 87 -29
100 -15 9 -15 11 1 28 24 27 22 76 -4 99 -17 16 -40 20 -135 23 l-114 3 0 -31z
m165 -61 c0 -20 -6 -26 -27 -28 -25 -3 -28 0 -28 28 0 28 3 31 28 28 21 -2 27
-8 27 -28z m19 -102 c16 -26 -4 -52 -43 -56 -30 -3 -31 -2 -31 38 0 40 1 41
31 38 18 -2 37 -11 43 -20z"/>
<path d="M1680 1885 c0 -14 7 -28 15 -31 12 -5 15 -26 15 -99 0 -73 -3 -94
-15 -99 -8 -3 -15 -17 -15 -31 0 -25 1 -25 75 -25 l75 0 0 30 c0 20 -5 30 -15
30 -12 0 -15 17 -15 95 0 78 3 95 15 95 10 0 15 10 15 30 l0 30 -75 0 c-74 0
-75 0 -75 -25z"/>
<path d="M1850 1885 c0 -14 7 -28 15 -31 12 -5 15 -26 15 -99 0 -73 -3 -94
-15 -99 -8 -3 -15 -17 -15 -31 l0 -25 125 0 125 0 0 55 0 55 -35 0 c-31 0 -35
-3 -35 -25 0 -21 -5 -25 -30 -25 l-30 0 0 95 c0 57 4 95 10 95 6 0 10 14 10
30 l0 30 -70 0 c-68 0 -70 -1 -70 -25z"/>
<path d="M2130 1880 c0 -20 5 -30 15 -30 12 0 15 -17 15 -95 0 -78 -3 -95 -15
-95 -10 0 -15 -10 -15 -30 l0 -30 135 0 135 0 0 50 0 50 -40 0 c-33 0 -40 -3
-40 -20 0 -16 -7 -20 -35 -20 -33 0 -35 2 -35 35 0 34 1 35 40 35 38 0 40 2
40 30 0 28 -2 30 -40 30 -38 0 -40 2 -40 30 0 28 3 30 35 30 28 0 35 -4 35
-20 0 -17 7 -20 40 -20 l40 0 0 50 0 50 -135 0 -135 0 0 -30z"/>
<path d="M2530 1885 c0 -14 7 -28 15 -31 12 -5 15 -26 15 -99 0 -73 -3 -94
-15 -99 -8 -3 -15 -17 -15 -31 l0 -25 104 0 c152 0 186 17 186 94 0 26 -7 42
-24 57 -24 21 -24 21 -5 40 36 36 20 90 -32 108 -18 6 -76 11 -130 11 l-99 0
0 -25z m175 -65 c0 -20 -6 -26 -27 -28 -25 -3 -28 0 -28 28 0 28 3 31 28 28
21 -2 27 -8 27 -28z m10 -120 c0 -32 -3 -35 -32 -38 -32 -3 -33 -3 -33 38 0
41 1 41 33 38 29 -3 32 -6 32 -38z"/>
<path d="M2840 1880 c0 -20 5 -30 15 -30 12 0 15 -17 15 -95 0 -78 -3 -95 -15
-95 -10 0 -15 -10 -15 -30 l0 -30 135 0 135 0 0 50 0 50 -40 0 c-33 0 -40 -3
-40 -20 0 -16 -7 -20 -35 -20 -33 0 -35 2 -35 35 0 35 0 35 45 35 43 0 45 1
45 30 0 29 -2 30 -45 30 -43 0 -45 1 -45 30 0 27 3 30 34 30 25 0 35 -5 39
-20 4 -15 14 -20 41 -20 l36 0 0 50 0 50 -135 0 -135 0 0 -30z"/>
<path d="M3140 1880 c0 -16 5 -30 10 -30 6 0 10 -38 10 -94 0 -74 -3 -95 -15
-100 -8 -3 -15 -17 -15 -31 0 -24 2 -25 70 -25 l70 0 0 30 c0 20 -5 30 -15 30
-11 0 -15 12 -15 52 l0 52 56 -82 56 -82 49 0 49 0 0 124 c0 101 3 125 15 130
8 3 15 17 15 31 0 24 -2 25 -70 25 l-70 0 0 -30 c0 -20 5 -30 15 -30 11 0 15
-12 14 -47 0 -47 0 -48 -16 -25 -9 13 -33 47 -53 75 l-36 52 -62 3 -62 3 0
-31z"/>
<path d="M3500 1880 c0 -16 5 -30 10 -30 6 0 10 -38 10 -95 0 -57 -4 -95 -10
-95 -5 0 -10 -13 -10 -30 l0 -30 70 0 70 0 0 30 c0 20 -5 30 -15 30 -22 0 -18
34 5 55 11 10 21 16 23 14 28 -38 38 -64 29 -67 -7 -2 -12 -17 -12 -33 l0 -29
85 0 85 0 0 30 c0 19 -5 30 -14 30 -13 0 -96 117 -96 136 0 12 54 54 70 54 5
0 10 14 10 30 l0 30 -70 0 -70 0 0 -30 c0 -17 5 -30 13 -30 14 -1 -48 -60 -63
-60 -6 0 -10 14 -10 30 0 20 5 30 15 30 10 0 15 10 15 30 l0 30 -70 0 -70 0 0
-30z"/>
<path d="M3860 1885 c0 -14 7 -28 15 -31 12 -5 15 -26 15 -99 0 -73 -3 -94
-15 -99 -8 -3 -15 -17 -15 -31 l0 -25 135 0 135 0 0 50 0 50 -35 0 c-28 0 -35
-4 -35 -20 0 -17 -7 -20 -40 -20 -39 0 -40 1 -40 35 0 35 0 35 45 35 43 0 45
1 45 30 0 29 -2 30 -45 30 -43 0 -45 1 -45 30 0 28 2 30 40 30 33 0 40 -3 40
-20 0 -16 7 -20 35 -20 l35 0 0 50 0 50 -135 0 -135 0 0 -25z"/>
<path d="M4160 1880 c0 -16 5 -30 10 -30 6 0 10 -38 10 -95 0 -57 -4 -95 -10
-95 -5 0 -10 -13 -10 -30 l0 -30 125 0 125 0 0 55 0 55 -40 0 c-36 0 -40 -2
-40 -25 0 -21 -5 -25 -30 -25 l-30 0 0 95 c0 78 3 95 15 95 10 0 15 10 15 30
l0 30 -70 0 -70 0 0 -30z"/>
<path d="M1478 1320 c-32 -80 -34 -90 -18 -90 10 0 20 9 23 20 4 16 14 20 50
20 36 0 46 -4 50 -20 3 -11 12 -20 21 -20 9 0 16 1 16 3 0 2 -15 41 -34 88
-47 116 -60 116 -108 -1z m82 -12 c0 -5 -11 -8 -25 -8 -27 0 -31 10 -14 42 11
21 12 21 25 -3 7 -13 13 -27 14 -31z"/>
<path d="M1650 1320 l0 -93 52 5 c62 6 88 32 88 88 0 56 -26 82 -88 88 l-52 5
0 -93z m98 48 c7 -7 12 -28 12 -48 0 -43 -15 -60 -52 -60 -28 0 -28 1 -28 60
0 59 0 60 28 60 15 0 33 -5 40 -12z"/>
<path d="M1820 1320 c0 -73 3 -90 15 -90 12 0 15 14 15 63 l1 62 28 -32 c15
-18 31 -33 36 -33 5 0 21 15 36 33 l28 32 1 -62 c0 -49 3 -63 15 -63 12 0 15
17 15 90 0 105 -12 116 -58 50 -15 -21 -31 -39 -37 -39 -5 0 -22 18 -37 39
-46 66 -58 55 -58 -50z"/>
<path d="M2045 1320 l0 -90 28 0 c17 0 27 5 27 15 0 8 -4 15 -10 15 -6 0 -10
27 -10 60 0 33 4 60 10 60 6 0 10 7 10 15 0 10 -10 15 -27 15 l-28 0 0 -90z"/>
<path d="M2130 1320 c0 -72 3 -90 15 -90 10 0 15 16 17 62 l3 61 43 -61 c61
-87 72 -83 72 28 0 72 -3 90 -15 90 -10 0 -15 -16 -17 -62 l-3 -63 -44 63
c-62 86 -71 82 -71 -28z"/>
<path d="M2310 1395 c0 -8 5 -15 10 -15 6 0 10 -27 10 -60 0 -33 -4 -60 -10
-60 -5 0 -10 -7 -10 -15 0 -10 10 -15 28 -15 l27 0 0 90 0 90 -27 0 c-18 0
-28 -5 -28 -15z"/>
<path d="M2440 1397 c-16 -8 -26 -23 -28 -40 -3 -24 2 -30 44 -47 44 -19 46
-22 31 -37 -13 -13 -21 -14 -41 -5 -13 6 -27 8 -30 5 -24 -24 35 -49 76 -32
54 22 48 70 -13 88 -49 15 -51 45 -4 47 49 2 51 4 25 19 -31 18 -29 18 -60 2z"/>
<path d="M2550 1395 c0 -9 9 -15 25 -15 24 0 25 -2 25 -75 0 -60 3 -75 15 -75
12 0 15 15 15 75 0 68 2 75 20 75 11 0 20 7 20 15 0 12 -13 15 -60 15 -47 0
-60 -3 -60 -15z"/>
<path d="M2700 1320 c0 -73 3 -90 15 -90 11 0 15 11 15 40 0 51 17 51 53 0 16
-22 35 -40 43 -40 18 0 18 0 -11 39 -22 31 -23 36 -10 55 33 46 1 86 -67 86
l-38 0 0 -90z m88 38 c3 -14 -3 -18 -27 -18 -25 0 -31 4 -31 21 0 16 5 20 27
17 17 -2 29 -10 31 -20z"/>
<path d="M2910 1334 c-17 -41 -34 -82 -37 -90 -3 -9 1 -14 12 -14 9 0 19 9 22
20 4 16 14 20 50 20 36 0 46 -4 50 -20 3 -11 14 -20 24 -20 16 0 14 10 -19 90
-47 114 -59 116 -102 14z m70 -21 c0 -7 -11 -13 -25 -13 -29 0 -29 0 -13 35
11 25 13 26 25 9 7 -10 13 -24 13 -31z"/>
<path d="M3070 1396 c0 -8 10 -16 23 -18 20 -3 22 -9 25 -75 2 -40 7 -73 12
-73 5 0 10 33 12 73 3 66 5 72 26 75 12 2 22 10 22 18 0 11 -15 14 -60 14 -45
0 -60 -3 -60 -14z"/>
<path d="M3264 1396 c-34 -15 -44 -32 -44 -77 0 -43 15 -65 50 -78 81 -28 145
70 88 133 -30 32 -56 38 -94 22z m64 -32 c24 -17 30 -65 10 -81 -30 -23 -49
-23 -74 2 -30 30 -30 40 1 70 28 29 33 30 63 9z"/>
<path d="M3410 1320 c0 -73 3 -90 15 -90 11 0 15 11 15 40 0 51 17 51 53 0 16
-22 35 -40 43 -40 18 0 18 0 -11 39 -22 31 -23 36 -10 55 33 46 1 86 -67 86
l-38 0 0 -90z m88 38 c3 -14 -3 -18 -27 -18 -25 0 -31 4 -31 21 0 16 5 20 27
17 17 -2 29 -10 31 -20z"/>
</g>
</svg>
